<!-- Source: https://upload.wikimedia.org/wikipedia/commons/a/a7/Email_%2889509%29_-_The_Noun_Project.svg -->
<svg xmlns="http://www.w3.org/2000/svg" xmlns:xlink="http://www.w3.org/1999/xlink" version="1.1" x="0px" y="0px" viewBox="0 0 100 100" enable-background="new 0 0 100 100" xml:space="preserve"><path d="M90.9,16.4H9.1c-2.3,0-4.1,1.9-4.1,4.1v58.9c0,2.3,1.8,4.1,4.1,4.1h81.8c2.3,0,4.1-1.8,4.1-4.1V20.5  C95,18.3,93.2,16.4,90.9,16.4L90.9,16.4z M50,51.9L19.7,24.6h60.6L50,51.9z M13.2,29.7L39,52.9L13.2,71.5V29.7z M45.1,58.5l2.1,1.9  c0.8,0.7,1.8,1.1,2.7,1.1c1,0,2-0.4,2.8-1.1l2.1-1.9l23.4,16.9H21.8L45.1,58.5z M61,52.9l25.8-23.2v41.8L61,52.9z"/></svg>