<?xml version="1.0" encoding="UTF-8" standalone="no"?>
<!-- Created with Inkscape (http://www.inkscape.org/) -->

<svg
   width="214.94762mm"
   height="279.29092mm"
   viewBox="0 0 214.94762 279.29092"
   version="1.1"
   id="svg1"
   xml:space="preserve"
   inkscape:version="1.4.4 (1:1.4.4+202605061436+dcaf3e7d9e)"
   sodipodi:docname="juglans.svg"
   xmlns:inkscape="http://www.inkscape.org/namespaces/inkscape"
   xmlns:sodipodi="http://sodipodi.sourceforge.net/DTD/sodipodi-0.dtd"
   xmlns="http://www.w3.org/2000/svg"
   xmlns:svg="http://www.w3.org/2000/svg"><sodipodi:namedview
     id="namedview1"
     pagecolor="#ffffff"
     bordercolor="#000000"
     borderopacity="0.25"
     inkscape:showpageshadow="2"
     inkscape:pageopacity="0.0"
     inkscape:pagecheckerboard="0"
     inkscape:deskcolor="#d1d1d1"
     inkscape:document-units="mm"
     inkscape:zoom="0.73260647"
     inkscape:cx="299.61515"
     inkscape:cy="563.05809"
     inkscape:window-width="3406"
     inkscape:window-height="1371"
     inkscape:window-x="0"
     inkscape:window-y="0"
     inkscape:window-maximized="1"
     inkscape:current-layer="layer1" /><defs
     id="defs1"><clipPath
       clipPathUnits="userSpaceOnUse"
       id="clipPath1"><rect
         style="fill:#000000;stroke-width:0.708911"
         id="rect2"
         width="215.24744"
         height="246.30663"
         x="-11.918062"
         y="-7.5842161" /></clipPath></defs><g
     inkscape:label="Layer 1"
     inkscape:groupmode="layer"
     id="layer1"
     transform="translate(-0.02211377,-0.72658729)"><path
       style="fill:#000000;stroke-width:0.798479"
       d="m 0.02211377,259.94894 v -9.50689 H 91.605168 183.18823 v 9.50689 9.5069 H 91.605168 0.02211377 Z M 30.93265,265.03437 c 0.812549,-0.30892 0.99037,-1.22769 0.99037,-5.11695 v -3.55997 h -0.633793 -0.633793 v 2.49479 c 0,2.6375 -0.226304,3.41092 -0.920143,3.14467 -0.297825,-0.11428 -0.347442,-0.52653 -0.347442,-2.88639 v -2.75307 h -0.633793 -0.633793 v 2.97159 c 0,1.64438 0.09768,3.1541 0.218696,3.38023 0.271571,0.50744 1.189247,0.53829 1.720155,0.0578 0.504599,-0.45665 0.727806,-0.21448 0.473195,0.51338 -0.176136,0.50352 -0.328862,0.58504 -1.201288,0.64125 -0.951004,0.0612 -0.999496,0.0946 -0.999496,0.68661 0,0.60472 0.0293,0.62221 1.042566,0.62221 0.573412,0 1.274764,-0.0883 1.558559,-0.19618 z m 133.14004,-2.35067 c 0.40368,-1.21535 0.27489,-1.67724 -0.16623,-0.59617 l -0.28925,0.70888 -0.27093,-0.73713 c -0.149,-0.40542 -0.3138,-0.62713 -0.36622,-0.4927 -0.0524,0.13443 0.0566,0.6079 0.2422,1.05217 0.30398,0.72752 0.30508,0.83146 0.011,1.04646 -0.46345,0.33888 -0.40543,0.56615 0.0784,0.3072 0.22269,-0.11918 0.56512,-0.69909 0.76095,-1.28871 z m -18.91202,0.44667 c 0,-0.10933 -0.0951,-0.25755 -0.21127,-0.32936 -0.1162,-0.0718 -0.21127,-0.35702 -0.21127,-0.63379 0,-0.27677 -0.0951,-0.56198 -0.21126,-0.6338 -0.27697,-0.17117 -0.26832,0.30144 0.0207,1.13043 0.2153,0.61759 0.61313,0.92031 0.61313,0.46652 z m 1.4454,-0.61795 c 0.29405,-0.98146 0.29947,-1.08463 0.0569,-1.08463 -0.10326,0 -0.26028,0.35651 -0.34895,0.79224 l -0.1612,0.79225 -0.2002,-0.79225 c -0.1101,-0.43573 -0.284,-0.79224 -0.38644,-0.79224 -0.22953,0 -0.5061,1.02621 -0.32531,1.20701 0.072,0.072 0.13101,-0.0806 0.13101,-0.33921 0,-0.25967 0.0946,-0.41174 0.21126,-0.33964 0.1162,0.0718 0.21127,0.34679 0.21127,0.61106 0,0.48091 0.15657,0.76216 0.4243,0.76216 0.0784,0 0.25272,-0.36754 0.38732,-0.81675 z m 1.63482,0.0616 c 0.15024,-0.80083 0.4284,-0.74743 0.54619,0.10487 0.10065,0.72826 0.52275,0.77637 0.68932,0.0786 0.0774,-0.3246 0.19031,-0.75654 0.25071,-0.95989 0.0605,-0.20334 0.0189,-0.36971 -0.0922,-0.36971 -0.11109,0 -0.27453,0.35651 -0.36319,0.79224 l -0.1612,0.79224 -0.2002,-0.79224 c -0.24128,-0.95485 -0.54537,-1.02195 -0.71806,-0.15845 -0.15225,0.76122 -0.49647,0.8431 -0.49647,0.1181 0,-0.28363 -0.0951,-0.57445 -0.21127,-0.64626 -0.27696,-0.17117 -0.26832,0.30144 0.0207,1.13043 0.30447,0.87342 0.56081,0.84211 0.73565,-0.0899 z m 2.95771,0 c 0.15023,-0.80083 0.4284,-0.74743 0.54618,0.10487 0.10065,0.72826 0.52275,0.77637 0.68932,0.0786 0.0774,-0.3246 0.1903,-0.75654 0.25071,-0.95989 0.0604,-0.20334 0.0189,-0.36971 -0.0922,-0.36971 -0.11109,0 -0.27453,0.35651 -0.36319,0.79224 l -0.16121,0.79224 -0.20019,-0.79224 c -0.24128,-0.95485 -0.54537,-1.02195 -0.71807,-0.15845 -0.15224,0.76122 -0.49647,0.8431 -0.49647,0.1181 0,-0.28363 -0.0951,-0.57445 -0.21126,-0.64626 -0.27696,-0.17117 -0.26832,0.30144 0.0207,1.13043 0.30448,0.87342 0.56082,0.84211 0.73566,-0.0899 z m 2.41263,0.54394 c 0,-0.11619 -0.10068,-0.21126 -0.22373,-0.21126 -0.12305,0 -0.16497,0.0951 -0.0932,0.21126 0.0718,0.1162 0.1725,0.21127 0.22374,0.21127 0.0513,0 0.0932,-0.0951 0.0932,-0.21127 z m 2.11264,-0.664 c 0,-0.84887 -0.42785,-1.18358 -1.02166,-0.79923 -0.32328,0.20925 -0.32236,0.21852 0.0114,0.11519 0.19962,-0.0618 0.41287,-0.0316 0.47388,0.0672 0.061,0.0987 -0.12607,0.23899 -0.41576,0.31169 -0.32995,0.0828 -0.5267,0.28196 -0.5267,0.5331 0,0.4444 0.17082,0.54173 0.95069,0.54173 0.46671,0 0.52816,-0.0895 0.52816,-0.76963 z m -1.05631,0.13584 c 0,-0.17429 0.1426,-0.31689 0.31689,-0.31689 0.17429,0 0.3169,0.1426 0.3169,0.31689 0,0.17429 -0.14261,0.3169 -0.3169,0.3169 -0.17429,0 -0.31689,-0.14261 -0.31689,-0.3169 z m 2.0542,-1.21476 c -0.0469,-0.37764 -0.0852,-0.0687 -0.0852,0.6866 0,0.75527 0.0383,1.06425 0.0852,0.68661 0.0469,-0.37763 0.0469,-0.99558 0,-1.37321 z m 1.20152,1.42602 c -0.10303,-0.41048 -0.0514,-0.52815 0.23187,-0.52815 0.25637,0 0.33274,0.12124 0.25751,0.40889 -0.0618,0.23639 0.0169,0.4564 0.18663,0.52152 0.21964,0.0843 0.29355,-0.0949 0.29355,-0.71154 0,-0.65181 -0.0928,-0.85365 -0.4438,-0.96505 -0.25696,-0.0816 -0.54601,-0.03 -0.6866,0.12249 -0.18829,0.20421 -0.16131,0.23471 0.12013,0.13584 0.19962,-0.0701 0.41287,-0.0467 0.47388,0.052 0.061,0.0987 -0.12607,0.239 -0.41576,0.3117 -0.75281,0.18894 -0.71535,0.93677 0.0583,1.16378 0.0313,0.009 -0.003,-0.22099 -0.0757,-0.51148 z m 2.50122,-0.91096 c 0.29633,-0.0567 0.36972,0.0791 0.36972,0.68421 0,1.0204 0.35835,0.9625 0.45718,-0.0739 0.0434,-0.45583 0.0297,-0.82485 -0.0306,-0.82004 -0.0603,0.005 -0.1572,-0.0148 -0.2153,-0.0435 -0.0581,-0.0288 -0.36707,-0.0682 -0.68661,-0.0876 -0.55748,-0.0339 -0.57985,0.003 -0.55316,0.92512 0.0268,0.92672 0.0324,0.93458 0.15844,0.22347 0.0828,-0.4669 0.26614,-0.76294 0.50035,-0.80773 z m 1.84857,0.61668 c 0,-0.56145 -0.10804,-0.86392 -0.34042,-0.95309 -0.26207,-0.10057 -0.30421,-0.045 -0.18309,0.24147 0.0865,0.20466 0.14313,0.63356 0.1258,0.95309 -0.0173,0.31954 0.0651,0.58098 0.18309,0.58098 0.11804,0 0.21462,-0.37011 0.21462,-0.82245 z m 2.95769,0.61118 c 0,-0.11619 -0.10068,-0.21126 -0.22373,-0.21126 -0.12304,0 -0.16497,0.0951 -0.0932,0.21126 0.0718,0.1162 0.17249,0.21127 0.22374,0.21127 0.0513,0 0.0932,-0.0951 0.0932,-0.21127 z m 1.79575,0 c 0.0718,-0.11619 -0.0651,-0.21126 -0.30443,-0.21126 -0.32315,0 -0.43499,-0.13579 -0.43499,-0.52816 0,-0.40333 0.10985,-0.52816 0.46478,-0.52816 0.33613,0 0.40088,-0.0639 0.23394,-0.23084 -0.35153,-0.35152 -1.12125,0.14561 -1.12125,0.72418 0,0.77454 0.82289,1.32286 1.16195,0.77424 z m 1.88629,-0.12072 c 0.1826,-0.18259 0.33199,-0.46101 0.33199,-0.6187 0,-0.27308 -0.54769,-0.95069 -0.76841,-0.95069 -0.81865,0 -1.2387,1.27322 -0.55199,1.67319 0.50098,0.29179 0.60359,0.28102 0.98841,-0.1038 z m -0.93559,-0.6187 c 0,-0.38732 0.11267,-0.52816 0.42252,-0.52816 0.30986,0 0.42253,0.14084 0.42253,0.52816 0,0.38732 -0.11267,0.52816 -0.42253,0.52816 -0.30985,0 -0.42252,-0.14084 -0.42252,-0.52816 z m 2.58798,-0.48844 c 0.29632,-0.0567 0.36971,0.0791 0.36971,0.68421 0,1.0204 0.35836,0.9625 0.45719,-0.0739 0.0435,-0.45583 0.0297,-0.82485 -0.0306,-0.82004 -0.0603,0.005 -0.15719,-0.0148 -0.21529,-0.0435 -0.0581,-0.0288 -0.36708,-0.0682 -0.68661,-0.0876 -0.55748,-0.0339 -0.57986,0.003 -0.55317,0.92512 0.0268,0.92672 0.0324,0.93458 0.15845,0.22347 0.0828,-0.4669 0.26614,-0.76294 0.50035,-0.80773 z m 1.84856,0.61668 c 0,-0.56145 -0.10804,-0.86392 -0.34042,-0.95309 -0.26207,-0.10057 -0.3042,-0.045 -0.18309,0.24147 0.0865,0.20466 0.14314,0.63356 0.1258,0.95309 -0.0173,0.31954 0.0651,0.58098 0.18309,0.58098 0.11804,0 0.21462,-0.37011 0.21462,-0.82245 z m -159.515014,0.24143 c 0.211202,-0.3521 0.232322,-0.3521 0.443524,0 0.121969,0.20334 0.45471,0.36971 0.739425,0.36971 h 0.517663 V 260.361 c 0,-2.00521 -0.0842,-2.91974 -0.308784,-3.35405 -0.755945,-1.46184 -3.493973,-0.70681 -3.493973,0.96349 0,0.41018 0.109405,0.49967 0.61089,0.49967 0.479547,0 0.640131,-0.1165 0.746892,-0.54188 0.188852,-0.75244 1.071757,-0.65412 1.071757,0.11935 0,0.39863 -0.243628,0.6836 -0.993399,1.16196 -1.300558,0.82976 -1.591278,1.40282 -1.466014,2.88979 0.07798,0.92568 1.674526,1.4116 2.132019,0.64888 z m -0.693716,-0.82745 c -0.311607,-0.31161 -0.114122,-1.28946 0.348118,-1.72371 0.682571,-0.64124 0.778625,-0.58584 0.778625,0.44908 0,1.11903 -0.601683,1.79969 -1.126743,1.27463 z m 4.295707,-3.02812 v -4.22528 h -0.633793 -0.633793 v 4.22528 4.22528 h 0.633793 0.633793 z m 2.610622,3.90838 c 0.174293,-0.17429 0.371223,-0.31689 0.437616,-0.31689 0.06643,0 0.120722,0.1426 0.120722,0.31689 0,0.21345 0.213522,0.3169 0.654059,0.3169 h 0.65405 l -0.07306,-2.95211 c -0.06779,-2.73932 -0.107755,-2.98677 -0.554176,-3.43293 -0.379869,-0.37965 -0.690437,-0.47272 -1.475968,-0.44232 -1.148855,0.0445 -1.740055,0.5776 -1.740055,1.56916 0,0.53415 0.07733,0.61039 0.619099,0.61039 0.480254,0 0.634239,-0.10612 0.686609,-0.47318 0.07537,-0.52829 0.771225,-0.77149 1.026334,-0.35871 0.284882,0.46095 -0.08525,1.01054 -1.124414,1.66956 -1.382403,0.87669 -1.837942,2.27279 -1.090017,3.34061 0.385651,0.55059 1.379657,0.6322 1.859218,0.15263 z m -0.666992,-0.99294 c -0.139434,-0.13943 -0.253517,-0.39567 -0.253517,-0.56941 0,-0.33444 1.015869,-1.50097 1.307111,-1.50097 0.313714,0 0.180919,1.65075 -0.160247,1.99192 -0.398452,0.39845 -0.559241,0.41257 -0.893347,0.0785 z m 4.183033,-1.13358 c 0,-2.43915 0.182484,-3.26071 0.724252,-3.26071 0.45677,0 0.543334,0.50762 0.543334,3.18624 v 2.51789 h 0.62766 0.62766 l 0.05893,-2.79925 c 0.05557,-2.63876 0.08317,-2.79925 0.481475,-2.79925 0.398305,0 0.425909,0.16049 0.481475,2.79925 l 0.05893,2.79925 h 0.642879 0.64288 l -0.06803,-3.18644 c -0.06124,-2.86936 -0.108976,-3.21633 -0.479478,-3.48684 -0.456156,-0.33307 -1.146529,-0.21174 -1.525694,0.26811 -0.214089,0.27093 -0.307087,0.25257 -0.697416,-0.13777 -0.482936,-0.48294 -1.17612,-0.43109 -1.614022,0.12071 -0.304859,0.38416 -0.50487,0.37571 -0.50487,-0.0213 0,-0.21127 -0.211262,-0.3169 -0.633793,-0.3169 H 21.35977 v 3.38024 3.38022 h 0.633792 0.633793 z m 130.49437,-2.244 c -0.0675,-0.16853 -0.11751,-0.11848 -0.12764,0.12764 -0.009,0.2227 0.0407,0.34748 0.11096,0.27728 0.0702,-0.0702 0.0777,-0.25242 0.0167,-0.40492 z m -6.16535,-1.22797 c 0,-0.58098 -0.0951,-1.05633 -0.21127,-1.05633 -0.11619,0 -0.21126,0.47535 -0.21126,1.05633 0,0.58097 0.0951,1.05631 0.21126,1.05631 0.1162,0 0.21127,-0.47534 0.21127,-1.05631 z m 1.64762,-0.44389 c -0.0984,-0.0984 -0.13145,0.22267 -0.0735,0.71347 0.10284,0.8704 0.10724,0.87481 0.1789,0.17889 0.0404,-0.3924 -0.007,-0.79397 -0.10543,-0.89236 z m 1.13881,0.4967 c -0.0532,-0.20334 -0.0966,-0.037 -0.0966,0.36971 0,0.40669 0.0435,0.57305 0.0966,0.36971 0.0531,-0.20334 0.0531,-0.53608 0,-0.73942 z m 0.96351,0.86359 c -0.14524,-0.0586 -0.26408,-0.25708 -0.26408,-0.44106 0,-0.18398 -0.0592,-0.27523 -0.13173,-0.20277 -0.2061,0.2061 0.0879,0.78563 0.38918,0.76706 0.21203,-0.0131 0.21347,-0.0398 0.006,-0.12323 z m 3.80276,-0.0779 c -0.63578,-0.25554 -0.60448,-0.6272 0.0528,-0.6272 0.29049,0 0.52816,-0.0713 0.52816,-0.15845 0,-0.0872 -0.2852,-0.15845 -0.63379,-0.15845 -0.43161,0 -0.6338,0.10446 -0.6338,0.32746 0,0.42551 0.4193,0.83809 0.8345,0.8211 0.20087,-0.008 0.1437,-0.0872 -0.14788,-0.20446 z m 2.27109,-0.83846 c 0,-0.58098 -0.0713,-1.05633 -0.15845,-1.05633 -0.0871,0 -0.15845,0.47535 -0.15845,1.05633 0,0.58097 0.0713,1.05631 0.15845,1.05631 0.0871,0 0.15845,-0.47534 0.15845,-1.05631 z m 1.53166,0.9164 c -0.14524,-0.0586 -0.38291,-0.0586 -0.52816,0 -0.14524,0.0586 -0.0264,0.10656 0.26408,0.10656 0.29049,0 0.40933,-0.048 0.26408,-0.10656 z m 4.55621,-0.54669 c 0.0517,-0.44959 -0.02,-0.57721 -0.31689,-0.5643 -0.22182,0.01 -0.27232,0.0616 -0.11967,0.12324 0.42646,0.17208 0.31878,0.9164 -0.13258,0.9164 -0.45096,0 -0.77782,-0.33437 -0.92931,-0.95069 -0.0967,-0.39341 -0.10555,-0.39081 -0.12837,0.0378 -0.0596,1.11989 1.50005,1.53945 1.62682,0.43762 z m 1.35919,0.54669 c -0.14524,-0.0586 -0.38292,-0.0586 -0.52816,0 -0.14525,0.0586 -0.0264,0.10656 0.26408,0.10656 0.29049,0 0.40932,-0.048 0.26408,-0.10656 z m 2.32793,0.002 c -0.14304,-0.0579 -0.42824,-0.0614 -0.6338,-0.008 -0.20555,0.0536 -0.0885,0.10091 0.26007,0.10521 0.34858,0.004 0.51677,-0.0395 0.37373,-0.0974 z m 2.22829,-0.54802 c 0.0517,-0.4496 -0.02,-0.57721 -0.3169,-0.56431 -0.22183,0.01 -0.27232,0.0616 -0.11966,0.12324 0.14524,0.0586 0.26408,0.29539 0.26408,0.52617 0,0.30937 -0.11924,0.40189 -0.45377,0.35212 -0.69032,-0.10271 -0.98047,-0.70255 -0.61989,-1.28155 0.27143,-0.43584 0.26684,-0.45157 -0.0544,-0.18613 -0.44557,0.36824 -0.44877,0.95515 -0.008,1.39632 0.52475,0.52476 1.22826,0.32799 1.3081,-0.36586 z m 1.04228,0.45842 c -0.20334,-0.11844 -0.38265,-0.47206 -0.39848,-0.78583 -0.0259,-0.51477 -0.0378,-0.52292 -0.12184,-0.0835 -0.0984,0.51498 0.25218,1.10187 0.65183,1.09109 0.13101,-0.003 0.0719,-0.10333 -0.13151,-0.22176 z m -4.80626,-0.82814 c 0,-0.33487 -0.0713,-0.65292 -0.15845,-0.70679 -0.0871,-0.0539 -0.15845,0.2642 -0.15845,0.70679 0,0.44259 0.0713,0.76064 0.15845,0.70678 0.0872,-0.0539 0.15845,-0.37191 0.15845,-0.70678 z m -12.51202,-0.36971 c 0.1867,-0.14525 0.24523,-0.26408 0.13006,-0.26408 -0.35878,0 -0.71753,0.48744 -0.69192,0.94012 0.024,0.42382 0.0266,0.42405 0.12346,0.0105 0.0544,-0.23239 0.2517,-0.54136 0.4384,-0.6866 z m 17.93794,0.54136 c -0.0675,-0.16853 -0.11749,-0.11847 -0.12763,0.12764 -0.009,0.22271 0.0408,0.34749 0.11096,0.27729 0.0702,-0.0702 0.0777,-0.25242 0.0167,-0.40493 z m 1.66653,0.0775 c 0,-0.28954 -0.12246,-0.36116 -0.49552,-0.28985 l -0.49551,0.0947 0.48797,0.26915 c 0.26838,0.14802 0.49136,0.27846 0.49551,0.28984 0.004,0.0114 0.007,-0.15234 0.007,-0.36386 z m -13.16561,-0.91401 c -0.11721,-0.11721 -0.14821,0.0799 -0.0786,0.49972 0.0973,0.58665 0.12702,0.61641 0.19354,0.19353 0.0432,-0.27484 -0.008,-0.5868 -0.11493,-0.69325 z m 7.39357,0.52488 c -0.14525,-0.0586 -0.38292,-0.0586 -0.52816,0 -0.14525,0.0586 -0.0264,0.10656 0.26408,0.10656 0.29048,0 0.40932,-0.048 0.26408,-0.10656 z m -8.02805,-0.84506 c -0.14524,-0.0586 -0.38291,-0.0586 -0.52816,0 -0.14524,0.0586 -0.0264,0.10657 0.26408,0.10657 0.29049,0 0.40933,-0.048 0.26408,-0.10657 z m 4.32651,0.0123 c -0.0702,-0.0702 -0.25241,-0.0777 -0.40491,-0.0167 -0.16854,0.0675 -0.11848,0.1175 0.12763,0.12764 0.22271,0.009 0.34749,-0.0407 0.27728,-0.11096 z m 1.58889,-0.0123 c -0.14524,-0.0586 -0.38292,-0.0586 -0.52816,0 -0.14525,0.0586 -0.0264,0.10657 0.26408,0.10657 0.29049,0 0.40932,-0.048 0.26408,-0.10657 z m 2.32793,0.002 c -0.14304,-0.0579 -0.42824,-0.0614 -0.6338,-0.008 -0.20555,0.0536 -0.0885,0.10092 0.26007,0.10522 0.34858,0.004 0.51677,-0.0395 0.37373,-0.0974 z m 5.16755,0.0109 c -0.0702,-0.0702 -0.25241,-0.0777 -0.40492,-0.0167 -0.16854,0.0675 -0.11847,0.1175 0.12764,0.12764 0.22271,0.009 0.34749,-0.0407 0.27728,-0.11096 z M 82.309542,222.63698 c -0.464779,-0.17719 -1.413492,-0.32537 -2.10824,-0.32929 -0.737619,-0.004 -1.616617,-0.16364 -2.11264,-0.38329 -0.467206,-0.20688 -1.419872,-0.54295 -2.117048,-0.74681 -0.697168,-0.20386 -1.362652,-0.4443 -1.478847,-0.53433 -0.116195,-0.09 -0.829213,-0.27542 -1.584486,-0.412 -0.755265,-0.13658 -1.472667,-0.3306 -1.594211,-0.43117 -0.121553,-0.10057 -0.413437,-0.16836 -0.648629,-0.15064 -0.235192,0.0177 -0.801226,-0.15027 -1.257844,-0.37331 -0.879613,-0.42965 -0.99647,-0.45309 -2.869383,-0.57551 -0.760032,-0.0497 -1.592686,-0.28484 -2.290589,-0.64693 -0.603067,-0.31288 -1.223421,-0.56887 -1.378558,-0.56887 -0.155136,0 -0.473857,-0.24383 -0.708267,-0.54183 -0.343122,-0.43621 -0.504087,-0.50015 -0.825723,-0.32803 -0.312533,0.16727 -0.579536,0.0898 -1.226424,-0.35604 -0.454806,-0.31342 -0.858604,-0.64115 -0.897331,-0.7283 -0.03873,-0.0871 -0.209672,-0.15845 -0.379868,-0.15845 -0.35498,0 -2.492836,-1.32469 -2.713152,-1.68117 -0.08069,-0.13057 -0.333245,-0.17819 -0.561219,-0.10583 -0.299757,0.0951 -0.728165,-0.13642 -1.54758,-0.83647 -0.623197,-0.53241 -1.229459,-0.96802 -1.347258,-0.96802 -0.1178,0 -0.483623,-0.22672 -0.812948,-0.50383 -0.329316,-0.2771 -0.929541,-0.68862 -1.333827,-0.91448 -0.404286,-0.22586 -1.086012,-0.92605 -1.514946,-1.556 -0.428935,-0.62993 -0.956818,-1.33548 -1.173078,-1.56787 -0.478185,-0.51386 -1.608432,-2.84133 -1.968339,-4.05332 -0.249341,-0.83963 -0.200929,-2.4368 0.138089,-4.5557 0.267147,-1.66973 -0.932631,-0.65789 -2.567677,2.16546 -0.437391,0.75527 -1.089996,1.80103 -1.450246,2.32391 -0.36025,0.52287 -0.770979,1.14082 -0.912733,1.37321 -0.141754,0.23239 -0.784642,1.27815 -1.428647,2.32391 -4.100549,6.65866 -5.749081,9.36024 -7.000705,11.47261 -0.778302,1.31354 -1.611275,2.52567 -1.851058,2.69362 -0.541234,0.3791 -1.398281,0.39911 -1.398281,0.0327 0,-0.26979 0.886958,-1.74706 3.387867,-5.64267 3.341922,-5.20564 11.189367,-18.48861 11.189367,-18.93968 0,-0.38159 -0.549266,-0.12856 -0.909556,0.41898 -0.165604,0.25169 -0.850404,0.83506 -1.521773,1.29641 -1.211101,0.83222 -1.235902,0.8387 -3.163039,0.82487 -1.36068,-0.01 -2.152197,-0.11861 -2.643014,-0.36346 -0.385346,-0.19224 -0.955125,-0.34953 -1.266164,-0.34953 -0.31104,0 -1.033224,-0.23727 -1.604839,-0.52727 -0.571624,-0.29 -1.194046,-0.52768 -1.383158,-0.52817 -0.189112,-4.8e-4 -0.459141,-0.1398 -0.600057,-0.30959 -0.140915,-0.1698 -0.461529,-0.37168 -0.712475,-0.44864 -0.250946,-0.077 -0.759066,-0.43715 -1.129161,-0.80042 -1.258052,-1.23487 -2.282924,-1.97489 -3.129862,-2.25995 -0.464779,-0.15643 -0.940122,-0.34656 -1.056316,-0.42249 -0.116203,-0.0759 -0.448937,-0.19827 -0.739432,-0.27185 -0.290487,-0.0736 -1.003504,-0.57128 -1.584478,-1.10601 -0.580981,-0.53472 -1.293991,-1.10141 -1.584486,-1.25928 -0.290486,-0.15788 -0.908006,-0.67818 -1.372266,-1.15622 -0.46426,-0.47805 -1.15351,-1.0604 -1.531666,-1.29411 -0.378156,-0.23371 -0.687557,-0.50841 -0.687557,-0.61043 0,-0.10202 -0.388936,-0.58229 -0.864301,-1.06726 -0.645288,-0.65832 -0.840094,-1.0084 -0.76877,-1.3815 0.0743,-0.38869 -0.179642,-0.78448 -1.14271,-1.781 -0.681032,-0.70469 -1.23824,-1.44879 -1.23824,-1.65354 0,-0.20475 -0.237298,-0.59521 -0.527328,-0.86768 -0.290031,-0.27247 -0.483806,-0.53892 -0.430613,-0.59212 0.05319,-0.0532 -0.21924,-0.48855 -0.605406,-0.96746 -0.386167,-0.47891 -0.755948,-1.22182 -0.821735,-1.65092 -0.11325,-0.73869 -0.604619,-1.60959 -1.4866344,-2.63489 -0.2319326,-0.26961 -0.3421778,-0.61892 -0.2685517,-0.8509 0.0796,-0.25079 -0.1430514,-0.80039 -0.6138515,-1.51526 -0.4381383,-0.66528 -0.7426295,-1.39363 -0.7482811,-1.78991 -0.00527,-0.36749 -0.1313897,-0.95337 -0.2803316,-1.30197 -0.1923313,-0.45013 -0.2119132,-0.82621 -0.067575,-1.29785 0.1355067,-0.44278 0.1276975,-0.88072 -0.023435,-1.31426 -0.1747958,-0.50142 -0.1576397,-0.78856 0.074977,-1.25486 0.2694619,-0.54014 0.259556,-0.69292 -0.092856,-1.43216 -0.2169723,-0.45514 -0.4635938,-1.49108 -0.5480465,-2.30209 -0.084453,-0.81101 -0.2862484,-1.66402 -0.4484347,-1.89557 -0.1621862,-0.23156 -0.2948839,-0.62095 -0.2948839,-0.86533 0,-0.24438 -0.2376721,-0.66761 -0.5281604,-0.94051 -0.4096445,-0.38484 -0.5281603,-0.70677 -0.5281603,-1.43467 0,-0.91423 0.015019,-0.93516 0.5809765,-0.80953 0.319537,0.0709 1.0318322,0.19024 1.5828786,0.26512 0.5510456,0.0749 1.1093326,0.26562 1.2406377,0.42384 0.1313043,0.15821 0.4260046,0.28766 0.6548894,0.28766 0.2288848,0 0.6647067,0.19551 0.9684939,0.43447 0.359338,0.28265 0.722268,0.39182 1.03865,0.31241 0.267472,-0.0671 0.771557,0.0255 1.12019,0.20574 0.480097,0.24826 0.73698,0.2726 1.058864,0.10034 0.233743,-0.1251 0.536125,-0.15876 0.671961,-0.0748 0.135835,0.0839 0.537913,0.18007 0.893507,0.21359 1.189294,0.1121 3.174021,0.46538 3.921129,0.69795 0.543141,0.16908 0.861431,0.1659 1.199036,-0.012 0.38319,-0.20189 0.694477,-0.13224 1.872281,0.41892 0.776968,0.36358 1.710973,0.66247 2.075559,0.66418 0.364593,0.002 0.863204,0.12055 1.108025,0.26408 1.039492,0.60941 2.306471,1.49926 2.371723,1.66576 0.03873,0.0988 0.310992,0.17969 0.605031,0.17969 0.531205,0 2.027323,0.70955 2.561418,1.21477 0.153547,0.14524 0.403343,0.26408 0.55511,0.26408 0.151767,0 0.393419,0.14155 0.537009,0.31457 0.143583,0.17301 0.343402,0.26369 0.444027,0.20149 0.230337,-0.14236 0.920766,0.21647 1.913882,0.99469 0.424328,0.3325 0.911999,0.55063 1.08372,0.48474 0.312884,-0.12006 1.829635,1.27747 1.846778,1.70163 0.0048,0.1162 0.338268,0.53943 0.74126,0.94053 0.402993,0.40108 0.732717,0.80439 0.732717,0.89623 0,0.0918 0.271379,0.40879 0.603059,0.70432 0.331688,0.29554 0.862246,1.0496 1.179026,1.67569 0.316773,0.6261 0.710878,1.19014 0.875788,1.25342 0.164902,0.0633 0.299829,0.25335 0.299829,0.42238 0,0.16902 0.218136,0.57604 0.484757,0.9045 0.266612,0.32845 0.664725,1.025 0.88469,1.54787 0.219973,0.52288 0.518996,1.09447 0.664503,1.2702 0.527643,0.63721 2.61347,4.97414 2.613661,5.43441 2.08e-4,0.48591 0.313435,1.99296 0.650122,3.12791 0.116706,0.39343 0.104146,1.58107 -0.03242,3.06333 -0.229435,2.49049 -0.606397,3.62147 -1.841461,5.52476 -0.474033,0.73051 -0.487208,1.22697 -0.03258,1.22697 0.203493,0 1.345901,-1.69346 3.990511,-5.9154 0.837022,-1.33625 2.774643,-4.39704 4.305815,-6.80175 1.531179,-2.40472 3.163263,-4.97158 3.626852,-5.70414 0.463589,-0.73256 1.533047,-2.56781 2.376569,-4.07836 1.995814,-3.57401 2.042797,-4.21746 0.196553,-2.69181 -1.089572,0.90037 -2.921299,1.45518 -3.759503,1.1387 -0.275858,-0.10415 -1.025151,-0.15043 -1.665084,-0.10284 -0.992765,0.0739 -1.270077,0.008 -1.889609,-0.44916 -0.399351,-0.29463 -0.88612,-0.53569 -1.081707,-0.53569 -0.195588,0 -0.47397,-0.1426 -0.618614,-0.31689 -0.144653,-0.1743 -0.352521,-0.3169 -0.461936,-0.3169 -0.454359,0 -2.518707,-1.08155 -2.633041,-1.3795 -0.06811,-0.17753 -0.537712,-0.5113 -1.043524,-0.74173 -0.505813,-0.23042 -1.028433,-0.6222 -1.16138,-0.87062 -0.361727,-0.67589 -1.824669,-2.00302 -2.530085,-2.29522 -0.341334,-0.14139 -0.62061,-0.3325 -0.62061,-0.4247 0,-0.0922 -0.465162,-0.50911 -1.033703,-0.92645 -1.469449,-1.07868 -3.614108,-3.18836 -3.614108,-3.55518 0,-0.17068 -0.380276,-0.74234 -0.845054,-1.27036 -0.464787,-0.52802 -0.845063,-1.01653 -0.845063,-1.08558 0,-0.0691 -0.335073,-0.48078 -0.744613,-0.91497 -0.40954,-0.43419 -0.836399,-1.12366 -0.948585,-1.53215 -0.112187,-0.40851 -0.628411,-1.17054 -1.147167,-1.69342 -0.518756,-0.52287 -0.947516,-1.05505 -0.952794,-1.1826 -0.0056,-0.12755 -0.532473,-0.74477 -1.171544,-1.37159 -0.639079,-0.62682 -1.161955,-1.32158 -1.161955,-1.54389 0,-0.22232 -0.219166,-0.6984 -0.487032,-1.05795 -0.681087,-0.91421 -1.487814,-3.11857 -1.205216,-3.29322 0.14688,-0.0908 0.03569,-0.69361 -0.327225,-1.77414 -0.302328,-0.90015 -0.494722,-1.77987 -0.427546,-1.95494 0.06715,-0.17507 -0.104217,-0.71513 -0.380882,-1.20015 -0.289649,-0.50777 -0.550783,-1.38708 -0.615596,-2.07286 -0.06188,-0.65504 -0.266963,-1.48957 -0.455684,-1.85451 -0.430069,-0.83167 -0.702853,-3.39805 -0.361184,-3.39805 0.327592,0 0.26702,-2.85281 -0.08074,-3.80275 -0.148884,-0.40669 -0.324638,-0.9771 -0.390568,-1.26759 -0.06595,-0.29049 -0.590531,-1.07502 -1.165788,-1.74342 -1.026748,-1.193 -2.764374,-4.27814 -2.764374,-4.90813 0,-0.4762 0.922084,-0.39614 1.389801,0.12068 0.60995,0.67399 2.067182,1.59976 2.973097,1.88878 0.447196,0.14268 1.065418,0.38989 1.373831,0.54937 0.30842,0.15948 0.745731,0.28996 0.971813,0.28996 0.226073,0 0.829356,0.30378 1.340622,0.67507 0.888947,0.64556 1.411064,0.76869 3.453901,0.81449 0.226433,0.005 0.875956,0.24242 1.443395,0.52743 0.567431,0.285 1.163113,0.51818 1.323743,0.51818 0.160622,0 0.717752,0.23768 1.238065,0.52817 0.520313,0.29048 1.229914,0.52816 1.576885,0.52816 0.346979,0 0.773471,0.1426 0.947763,0.31689 0.174292,0.17429 0.617982,0.3169 0.985978,0.3169 0.368003,0 0.948577,0.19901 1.290174,0.44225 0.341605,0.24325 0.760448,0.38878 0.930779,0.32342 0.182956,-0.0702 0.76345,0.27242 1.418538,0.83726 1.896931,1.63563 2.087201,1.7773 2.386942,1.7773 0.160334,0 0.389833,0.18369 0.509988,0.40822 0.120163,0.22452 0.384947,0.46419 0.588415,0.53259 0.203461,0.0684 0.607611,0.4525 0.898098,0.85355 0.290486,0.40105 0.660805,0.73179 0.822928,0.73499 0.162123,0.003 0.909684,0.62377 1.661244,1.37903 0.751568,0.75528 1.42701,1.37507 1.500981,1.37734 0.07394,0.002 0.704913,0.68351 1.402081,1.51387 0.697176,0.83037 1.521079,1.77436 1.830905,2.09775 0.309826,0.3234 0.626183,0.78604 0.703005,1.0281 0.07681,0.24207 0.382591,0.6985 0.679466,1.01429 0.296874,0.3158 0.664278,0.86695 0.816453,1.22478 0.152174,0.35783 0.424774,0.77352 0.605782,0.92374 0.181007,0.15023 0.329101,0.37136 0.329101,0.4914 0,0.12005 0.217641,0.51246 0.483655,0.87201 0.266005,0.35955 0.655878,1.08154 0.866381,1.60443 0.210503,0.52287 0.515738,1.26288 0.6783,1.64446 0.162563,0.38157 0.295573,0.8982 0.295573,1.14806 0,0.24986 0.179323,0.84082 0.398489,1.31324 1.187283,2.55917 1.615315,7.50179 0.855611,9.87989 -0.227056,0.71075 -0.504519,1.40275 -0.616578,1.53777 -0.112059,0.13502 -0.472253,1.06931 -0.800427,2.07619 -0.419505,1.28709 -0.538375,1.94136 -0.400334,2.2034 0.264584,0.50224 1.448761,1.74594 1.662386,1.74594 0.199851,0 1.511377,-2.0148 3.163007,-4.85908 0.640987,-1.10386 2.349365,-3.95592 3.796393,-6.33793 3.381726,-5.56679 7.400735,-12.40389 7.711048,-13.11798 0.35886,-0.8258 0.05366,-1.17077 -0.635997,-0.71889 -0.304204,0.19933 -0.69157,0.30928 -0.860816,0.24434 -0.185071,-0.071 -0.358062,0.0406 -0.434045,0.27997 -0.19526,0.6152 -1.783028,1.12964 -2.995343,0.97049 -0.560788,-0.0736 -1.494952,-0.1882 -2.075926,-0.25461 -0.580981,-0.0664 -1.198924,-0.24123 -1.373224,-0.38848 -0.174292,-0.14726 -0.556492,-0.32438 -0.849334,-0.39359 -0.841038,-0.19879 -2.378047,-1.3226 -2.927831,-2.14072 -0.276418,-0.41134 -0.578898,-0.74788 -0.672176,-0.74788 -0.285696,0 -2.173173,-2.09656 -2.433908,-2.70351 -0.134935,-0.31409 -0.482457,-0.77324 -0.772281,-1.02033 -0.292331,-0.24922 -0.591697,-0.79435 -0.672359,-1.22432 -0.100569,-0.53608 -0.294855,-0.83189 -0.63008,-0.95935 -0.266572,-0.10135 -0.824486,-0.69123 -1.239799,-1.31085 -0.415321,-0.61961 -1.172646,-1.51489 -1.682962,-1.9895 -1.081628,-1.00595 -1.851441,-2.0314 -1.851441,-2.46625 0,-0.16844 -0.213905,-0.53744 -0.475343,-0.81999 -1.027946,-1.11098 -1.848567,-2.2665 -1.848567,-2.60297 0,-0.19438 -0.237675,-0.66502 -0.528162,-1.04587 -0.290487,-0.38084 -0.528162,-0.7556 -0.528162,-0.83279 0,-0.0772 -0.285201,-0.53405 -0.633793,-1.01526 -0.348584,-0.48121 -0.633793,-0.99239 -0.633793,-1.13597 0,-0.36868 -0.408078,-1.10717 -1.283834,-2.3233 -0.855179,-1.18756 -1.462598,-2.4161 -1.462598,-2.95818 0,-0.49833 -0.406729,-1.94842 -0.793489,-2.82895 -0.174835,-0.39805 -0.439658,-1.25367 -0.588503,-1.90138 -0.148836,-0.64771 -0.469186,-1.73905 -0.711892,-2.42521 -0.242706,-0.68617 -0.442214,-1.54178 -0.443347,-1.90138 -7.99e-4,-0.3596 -0.215047,-1.12916 -0.475351,-1.71013 -0.403296,-0.90015 -0.457656,-1.30623 -0.367644,-2.74645 0.05813,-0.92955 0.02324,-2.16545 -0.07737,-2.746424 -0.100657,-0.580981 -0.168,-1.270228 -0.149643,-1.531666 0.100129,-1.42626 0.01062,-2.507919 -0.389075,-4.700631 -0.909699,-4.990734 -1.023235,-6.17499 -0.575552,-6.003197 0.430572,0.165229 0.87245,1.116537 0.812069,1.74831 -0.07043,0.737251 0.569971,1.736708 1.576366,2.460122 0.448194,0.32217 1.042382,0.945758 1.320421,1.385768 0.278038,0.440002 0.799868,0.944817 1.159623,1.1218 0.903263,0.444377 2.286381,0.563007 2.735477,0.234625 0.431099,-0.315232 1.076358,-0.192993 1.859618,0.352297 0.308429,0.214711 0.727263,0.390392 0.930747,0.390392 0.203485,0 0.664159,0.219414 1.023714,0.487583 0.359548,0.268169 1.034007,0.663113 1.498786,0.877657 0.464786,0.214535 1.139238,0.613072 1.498793,0.885633 0.359555,0.27256 0.816836,0.49556 1.016176,0.49556 0.199349,0 0.798224,0.332742 1.330841,0.739423 0.532618,0.40669 1.061011,0.739424 1.174212,0.739424 0.185989,0 1.208498,0.783474 2.075055,1.589954 0.184042,0.17128 0.439076,0.31142 0.566737,0.31142 0.127669,0 0.292802,0.19118 0.366965,0.42485 0.07418,0.23366 0.394041,0.55888 0.710838,0.7227 0.523594,0.27076 1.61351,1.40904 3.099256,3.23676 0.307231,0.37794 0.64589,0.63322 0.752583,0.56728 0.106685,-0.066 0.359459,0.181 0.561714,0.54875 0.202263,0.36775 0.801849,1.25803 1.332422,1.97841 0.530565,0.72038 1.026692,1.47141 1.1025,1.66896 0.07578,0.19755 0.27189,0.35918 0.43573,0.35918 0.316557,0 0.657101,0.71613 0.882471,1.85572 0.07609,0.385 0.357048,0.83782 0.631166,1.01743 0.271683,0.17802 0.810065,0.95911 1.196409,1.73578 0.386344,0.77665 0.759729,1.45964 0.82974,1.51774 0.07003,0.0581 0.297936,0.62851 0.506499,1.26758 0.208563,0.63908 0.437694,1.20949 0.509182,1.26759 0.158267,0.12862 0.824941,2.45964 1.117807,3.90839 0.11744,0.58098 0.301226,1.22573 0.408406,1.43277 0.10718,0.20705 0.290918,1.39009 0.408302,2.62899 0.117385,1.2389 0.312126,2.37146 0.432752,2.51681 0.151671,0.18276 0.15005,0.74031 -0.0056,1.80756 -0.123509,0.84881 -0.268529,2.25631 -0.322251,3.12778 -0.114981,1.86524 -0.610157,4.61956 -0.941965,5.23956 -0.331457,0.61933 -0.289728,1.21144 0.108673,1.54209 0.29483,0.24468 0.399758,0.21156 0.754746,-0.23821 0.426045,-0.53982 2.534756,-3.90123 4.303699,-6.86035 0.555685,-0.92956 2.865861,-4.68478 5.133725,-8.34493 6.795741,-10.9678 7.499217,-12.29949 6.313715,-11.95203 -0.261438,0.0767 -0.713018,0.20442 -1.003505,0.28398 -0.734688,0.20121 -3.652722,0.0718 -3.897376,-0.17287 -0.11063,-0.11063 -0.550764,-0.20114 -0.978078,-0.20114 -0.427322,0 -0.893203,-0.1401 -1.0353,-0.31132 -0.142097,-0.17121 -0.594572,-0.37437 -1.005501,-0.45146 -0.410921,-0.0771 -0.921501,-0.29352 -1.134615,-0.48094 -0.740094,-0.65088 -1.566344,-1.31377 -2.406703,-1.93085 -0.464787,-0.34128 -0.906218,-0.69355 -0.980964,-0.78281 -0.07474,-0.0892 -0.764001,-0.81787 -1.531667,-1.61915 -0.767673,-0.80128 -1.395174,-1.56183 -1.394455,-1.69011 7.18e-4,-0.12829 -0.7123,-0.91195 -1.584486,-1.74146 -0.872179,-0.82952 -1.585788,-1.6029 -1.585788,-1.71863 0,-0.11573 -0.216771,-0.35246 -0.481706,-0.52606 -0.264944,-0.17359 -0.764057,-0.73117 -1.109144,-1.23906 -0.345078,-0.50789 -0.888419,-1.20864 -1.20742,-1.55722 -0.319,-0.348595 -0.580438,-0.730563 -0.580973,-0.848834 -5.43e-4,-0.118278 -0.221498,-0.546088 -0.491017,-0.950693 C 70.669509,98.134718 70.221874,97.233259 69.944291,96.536091 69.666708,95.838915 69.05025,94.840696 68.574372,94.317812 67.227945,92.83839 66.491795,91.79338 65.746734,90.303794 65.368958,89.54852 64.78392,88.455227 64.446643,87.874253 c -0.33727,-0.580973 -0.615444,-1.30612 -0.618159,-1.611426 -0.0024,-0.305315 -0.132851,-0.661277 -0.289193,-0.791029 -0.636348,-0.528123 -1.302519,-2.943019 -1.843249,-6.681907 -0.13444,-0.929563 -0.326219,-2.212993 -0.426172,-2.852067 -0.09995,-0.639075 -0.240383,-2.013448 -0.312054,-3.054163 -0.0717,-1.040715 -0.273998,-2.276611 -0.449608,-2.746436 -0.657507,-1.759055 -1.394519,-3.627765 -1.75338,-4.445718 -0.704362,-1.605475 -0.805098,-1.939667 -1.055533,-3.501894 -0.274709,-1.713655 -0.228717,-3.060897 0.103227,-3.023491 0.300707,0.03389 1.275379,1.696838 1.691306,2.885646 0.193983,0.554441 0.663265,1.314992 1.042854,1.690113 0.710806,0.702439 2.715635,2.055258 3.045823,2.055258 0.258387,0 3.992666,1.953162 4.677594,2.446552 0.174292,0.125553 0.792243,0.401129 1.373216,0.612392 0.580982,0.211263 1.308675,0.560115 1.617096,0.775228 0.308429,0.215112 0.666227,0.391113 0.79511,0.391113 0.128882,0 0.399415,0.08895 0.601182,0.197676 0.731479,0.394158 1.809242,0.858646 1.992341,0.858646 0.103044,0 0.472684,0.210951 0.82142,0.46878 0.578426,0.427651 1.373863,0.602941 2.692096,0.593258 0.628579,-0.0046 1.251161,0.32691 2.028975,1.080449 0.340344,0.329716 0.803055,0.657964 1.028258,0.729439 0.419601,0.133177 1.954309,1.62037 2.89281,2.803237 0.289209,0.364521 0.6466,0.662764 0.794191,0.662764 0.147591,0 0.557913,0.4706 0.911823,1.045777 0.35391,0.575177 0.823512,1.102919 1.043564,1.172761 0.220045,0.06984 0.457353,0.307417 0.527348,0.527948 0.07003,0.220531 0.414642,0.708607 0.765882,1.084612 0.351243,0.376012 0.814768,1.02892 1.030062,1.450925 0.215286,0.422004 0.540985,0.89139 0.723773,1.043093 0.18278,0.151695 0.333477,0.43054 0.334882,0.619659 0.0016,0.189112 0.239065,0.757589 0.528154,1.263282 0.28909,0.505685 0.525615,1.230832 0.525615,1.611427 0,0.380595 0.1365,0.805274 0.303318,0.943722 0.166827,0.138449 0.363077,0.523803 0.436114,0.856329 0.07306,0.332527 0.266764,0.715789 0.430516,0.85169 0.163752,0.135893 0.360258,0.594044 0.436696,1.018101 0.07641,0.424056 0.197152,0.866078 0.268265,0.982273 0.07114,0.116194 0.139359,0.401403 0.151663,0.633792 0.0123,0.232398 0.188665,1.183083 0.391902,2.112648 0.203244,0.929558 0.457848,2.498194 0.565786,3.485857 0.364865,3.338561 0.535708,4.540871 0.696729,4.903371 0.08824,0.19866 0.04639,0.86413 -0.09291,1.47885 -0.139343,0.61471 -0.330339,1.73561 -0.424432,2.49087 -0.0941,0.75528 -0.337078,2.29907 -0.539955,3.43067 -0.355331,1.9819 -0.354613,2.08393 0.0194,2.77848 0.655974,1.21807 0.583696,1.32117 4.278969,-6.10352 5.306832,-10.662674 9.953802,-20.693935 9.702742,-20.944992 -0.0905,-0.09046 -2.3788,0.321739 -3.2554,0.586395 -0.45582,0.137609 -0.81652,0.13194 -1.09525,-0.01725 -0.22858,-0.122335 -0.68329,-0.226624 -1.01047,-0.23175 -0.71978,-0.01126 -2.1929,-0.420583 -3.341295,-0.928368 -2.210821,-0.977562 -2.572572,-1.171912 -2.942859,-1.581084 -0.218471,-0.241404 -0.482776,-0.438924 -0.587337,-0.438924 -0.574585,0 -4.158599,-1.812172 -4.60847,-2.33017 -0.177039,-0.203843 -0.652381,-0.526923 -1.056316,-0.717953 -1.131876,-0.53528 -1.975725,-1.015055 -2.226707,-1.266005 -0.125449,-0.125428 -0.91053,-0.837531 -1.744629,-1.582452 -0.834099,-0.744921 -1.516544,-1.439246 -1.516544,-1.542944 0,-0.103699 -0.509868,-0.825183 -1.133041,-1.603299 -1.069683,-1.335649 -1.677884,-1.929751 -4.768845,-4.658285 -0.704602,-0.621987 -1.281104,-1.253649 -1.281104,-1.403692 0,-0.150042 -0.2852,-0.578119 -0.633792,-0.951282 -0.348584,-0.373163 -0.633793,-0.748016 -0.633793,-0.833007 0,-0.08499 -0.366997,-0.669118 -0.815559,-1.298059 -0.448553,-0.628942 -0.871116,-1.428737 -0.939019,-1.777323 -0.06787,-0.348586 -0.268201,-1.38085 -0.445104,-2.293919 -0.176903,-0.91307 -0.409357,-1.768691 -0.51656,-1.901379 -0.107204,-0.132688 -0.193504,-0.489915 -0.191779,-0.793839 0.004,-0.665563 -0.554871,-2.473556 -1.167464,-3.77833 -0.245501,-0.522879 -0.468189,-1.154036 -0.494882,-1.402571 -0.07657,-0.712947 -0.523419,-2.272702 -0.719996,-2.513134 -0.263946,-0.322819 -1.252998,-3.509397 -1.256128,-4.047053 -0.0016,-0.254581 -0.09776,-0.521632 -0.21396,-0.593445 -0.116195,-0.07182 -0.21127,-0.346239 -0.21127,-0.609837 0,-0.263598 -0.236581,-1.061506 -0.525742,-1.773129 -0.561147,-1.381004 -0.959732,-4.271858 -0.58899,-4.271858 0.192744,0 1.326002,1.528788 1.326002,1.788802 0,0.195084 0.71895,1.006062 2.11264,2.383064 1.406034,1.389194 3.001012,2.300068 4.312306,2.46271 0.394185,0.04889 0.909891,0.192284 1.146009,0.318651 0.236118,0.126367 0.690668,0.229758 1.010108,0.229758 0.31944,0 1.139166,0.198242 1.82161,0.440537 0.682444,0.242296 1.364433,0.393098 1.51553,0.335116 0.151096,-0.05798 0.543963,0.0712 0.873041,0.287069 0.329069,0.215869 0.984381,0.454479 1.456234,0.530243 0.471853,0.07577 1.091768,0.286483 1.377592,0.468266 0.490593,0.312015 1.031371,0.456867 2.024927,0.54239 0.237579,0.02045 0.685814,0.203553 0.996067,0.406895 0.310265,0.203342 0.745955,0.369712 0.968204,0.369712 0.222257,0 0.522445,0.142604 0.667098,0.316897 0.144652,0.174292 0.379357,0.316896 0.521566,0.316896 0.38981,0 1.591073,0.638954 1.591073,0.846294 0,0.09986 0.188002,0.241223 0.417773,0.314151 0.229778,0.07292 0.823958,0.472259 1.320405,0.887402 0.496446,0.415143 1.1403,0.860993 1.430786,0.990778 0.290487,0.129784 0.750515,0.497411 1.022285,0.816948 0.27177,0.319537 0.618726,0.580976 0.771012,0.580976 0.152285,0 0.833085,0.710256 1.512886,1.578345 0.708259,0.904432 1.398464,1.580966 1.616497,1.584482 0.231334,0.0038 0.500314,0.292913 0.686154,0.737697 0.16811,0.402359 0.58044,1.044515 0.91628,1.427014 0.33584,0.382499 0.82099,1.099055 1.0781,1.592347 0.25712,0.493291 0.59602,0.896894 0.75312,0.896894 0.26381,0 0.72411,1.191499 0.72685,1.881437 6.5e-4,0.163325 0.22629,0.592085 0.50142,0.9528 0.27513,0.360715 0.56839,0.966147 0.65169,1.345404 0.0833,0.379257 0.39966,0.984543 0.70304,1.34508 0.52606,0.62519 0.7164,1.241529 1.42553,4.615963 0.4886,2.32499 0.5852,4.656594 0.31922,7.704547 -0.24258,2.779963 -0.23507,2.948323 0.15488,3.471151 0.7718,1.034765 0.94294,0.8503 2.22144,-2.394296 0.66383,-1.684677 1.20695,-3.189837 1.20695,-3.344801 0,-0.154964 0.0859,-0.372069 0.19093,-0.482453 0.6057,-0.636712 5.93574,-18.085303 5.93574,-19.431439 0,-0.491939 -0.063,-0.531903 -0.68661,-0.435705 -2.01979,0.311559 -2.80502,0.331363 -4.61605,0.116412 -1.47054,-0.174538 -2.17787,-0.366004 -2.72539,-0.737737 -0.40668,-0.276114 -1.17464,-0.693811 -1.70655,-0.928215 -0.53192,-0.234404 -1.1974,-0.598435 -1.47885,-0.808959 -0.28145,-0.210523 -0.87512,-0.569825 -1.31929,-0.798448 -0.44415,-0.228624 -1.34319,-0.867257 -1.99786,-1.419185 -0.65467,-0.551928 -1.25797,-1.003506 -1.34066,-1.003506 -0.22122,0 -1.712909,-1.484874 -2.228471,-2.218274 -0.245054,-0.348586 -0.927426,-1.014069 -1.516392,-1.47885 -0.588958,-0.464782 -1.074649,-0.926444 -1.079312,-1.025916 -0.0048,-0.09947 -0.248543,-0.369695 -0.541952,-0.600496 -0.293417,-0.230799 -0.671265,-0.749393 -0.839664,-1.152429 -0.310297,-0.742639 -0.714352,-1.312844 -1.954669,-2.758396 -1.057666,-1.232679 -2.06343,-3.55174 -2.408804,-5.554137 -0.11023,-0.639074 -0.394065,-1.490568 -0.630751,-1.892207 -0.236693,-0.401639 -0.468228,-1.111039 -0.514524,-1.576443 -0.04631,-0.465404 -0.233635,-1.161134 -0.416295,-1.546067 -0.182668,-0.384933 -0.304715,-0.863895 -0.271227,-1.064361 0.03346,-0.200465 -0.05046,-0.649689 -0.186621,-0.998275 -0.219422,-0.561891 -0.478456,-2.411703 -0.502922,-3.591492 -0.02403,-1.159064 -0.456615,-3.877056 -0.706091,-4.43655 -0.155432,-0.348586 -0.519331,-1.204207 -0.808668,-1.901379 -0.289329,-0.697172 -0.873033,-1.790464 -1.297113,-2.429538 -1.244494,-1.875415 -1.610038,-3.834344 -0.473067,-2.535172 1.262076,1.442127 3.942351,3.543397 5.115077,4.010086 0.689064,0.274216 1.490513,0.660684 1.781008,0.858819 0.609303,0.41559 2.349844,1.149887 3.274595,1.38148 0.787683,0.197267 0.692728,0.163372 1.63051,0.581985 0.432001,0.192839 0.880651,0.350615 0.996997,0.350615 0.293489,0 1.890806,0.846794 2.03383,1.078202 0.06436,0.104161 0.334846,0.189384 0.601036,0.189384 0.2662,0 0.87771,0.285207 1.35892,0.633793 0.48121,0.348586 0.95424,0.633793 1.0512,0.633793 0.0969,0 0.39954,0.237672 0.67244,0.52816 0.2729,0.290489 0.58102,0.528161 0.68471,0.528161 0.1037,0 0.50015,0.237673 0.881,0.528161 0.38084,0.290488 0.82608,0.532891 0.9894,0.538674 0.16333,0.0057 0.67723,0.479778 1.14202,1.053322 0.46478,0.573545 0.95372,1.044159 1.08653,1.045808 0.13281,0.0017 0.29284,0.136859 0.35563,0.300466 0.17684,0.460832 2.50414,3.99286 2.87521,4.36357 0.18175,0.181566 0.52059,0.704445 0.75298,1.161954 0.23239,0.457508 0.48653,0.861091 0.56475,0.896849 0.2494,0.114 1.90578,3.658372 2.00558,4.291562 0.0528,0.334949 0.23226,0.870243 0.39882,1.189542 0.16656,0.3193 0.30342,0.73107 0.30414,0.915046 7.2e-4,0.183976 0.0677,0.400918 0.14889,0.482092 0.31243,0.312422 1.16958,3.940546 1.47914,6.260758 0.25135,1.884031 0.27987,2.951331 0.12702,4.753447 -0.18629,2.196337 -0.1016,2.852068 0.36838,2.852068 0.2474,0 0.47576,-0.785961 2.08975,-7.192508 0.80368,-3.190134 2.13371,-8.43358 2.9556,-11.652099 1.48618,-5.819805 1.75282,-7.2726 1.24084,-6.760622 -0.57649,0.576493 -3.97177,0.124833 -3.97177,-0.528349 0,-0.332092 -0.25713,-0.355347 -0.56168,-0.0508 -0.15736,0.157364 -0.43601,0.09677 -0.94012,-0.204435 -0.39406,-0.23545 -1.11778,-0.622428 -1.60826,-0.859952 -0.49047,-0.237525 -0.99293,-0.620874 -1.11657,-0.851887 -0.12363,-0.231013 -0.40685,-0.420024 -0.62938,-0.420024 -0.22253,0 -0.48062,-0.130234 -0.57354,-0.289409 -0.0929,-0.159175 -0.54923,-0.482634 -1.01401,-0.718797 -0.9408,-0.478035 -1.38357,-0.829973 -3.44063,-2.734805 -2.45412,-2.272497 -2.98598,-2.86393 -4.2549,-4.731472 -1.18517,-1.744288 -1.63344,-2.624455 -1.53029,-3.004715 0.0263,-0.09711 -0.14496,-0.488604 -0.38067,-0.869993 -0.23571,-0.381389 -0.42857,-0.854726 -0.42857,-1.051861 0,-0.197136 -0.1804,-0.803863 -0.40088,-1.348282 -0.22048,-0.544456 -0.61141,-1.797976 -0.86873,-2.785638 -0.25731,-0.98766 -0.69486,-2.4157101 -0.97233,-3.1734444 -0.27746,-0.7577345 -0.50448,-1.5794166 -0.50448,-1.8259598 0,-0.2465432 -0.1306,-0.4983755 -0.29022,-0.5596284 -0.15962,-0.061251 -0.3533,-0.447625 -0.4304,-0.8586062 C 99.940858,4.1627376 99.42572,2.9377988 98.774983,1.7840117 98.169297,0.71010207 98.598407,0.37428648 99.584841,1.150219 c 0.295437,0.2323909 0.588699,0.4225287 0.651689,0.4225287 0.063,0 0.54126,0.2879931 1.06281,0.6399842 1.19424,0.80598 2.53707,1.2160805 3.58234,1.0940505 0.44593,-0.052061 1.01601,0.00447 1.26683,0.1255409 0.25082,0.1211077 0.72537,0.2789199 1.05456,0.3506936 0.3292,0.071775 0.95851,0.3577434 1.39849,0.6354871 0.43997,0.2777438 1.16886,0.5726453 1.61975,0.6553374 0.45089,0.082692 1.00732,0.2794629 1.23651,0.4372703 0.2292,0.1578066 0.56194,0.2873191 0.73942,0.2878054 0.79591,0.00216 4.67206,2.4004686 5.92121,3.6636354 1.13992,1.1527035 1.47885,1.5359445 1.47885,1.6721975 0,0.06892 0.34557,0.869024 0.76792,1.778024 0.50958,1.0967 0.9632,2.612246 1.34837,4.504794 0.31924,1.568637 0.88214,3.707688 1.25089,4.753445 1.35603,3.845629 1.39465,4.097893 1.20993,7.902303 -0.022,0.454745 0.0746,0.756742 0.26282,0.821068 0.21266,0.07268 0.25648,-0.0057 0.15335,-0.274525 -0.0825,-0.21488 -0.0177,-0.521752 0.15085,-0.715436 0.16239,-0.186538 0.35931,-0.931325 0.43761,-1.655083 0.25986,-2.401937 1.18056,-4.603147 3.13501,-7.495191 1.4648,-2.167503 2.55722,-3.212126 4.10531,-3.925685 1.45242,-0.66947 1.82688,-0.992386 5.38017,-4.639686 0.9339,-0.958612 1.82359,-1.742931 1.97708,-1.742931 0.26754,0 0.67634,-0.181186 2.52433,-1.1188164 0.46078,-0.233791 1.12627,-0.4972712 1.47885,-0.5855119 0.35259,-0.088241 1.16394,-0.2995183 1.80302,-0.4695041 0.63907,-0.1699866 1.58728,-0.3728889 2.10712,-0.4508948 0.51985,-0.078003 1.11808,-0.2983079 1.32941,-0.4895612 0.21133,-0.1912533 0.7367,-0.4796736 1.16747,-0.6409344 0.79997,-0.299468 0.90866,-0.3242799 3.10714,-0.7093792 1.7259,-0.3023162 2.39777,-0.5608142 3.32741,-1.2801879 0.74684,-0.5779097 0.79225,-0.5878571 0.79225,-0.1735423 0,0.4899268 -0.89514,2.3576972 -1.52014,3.1718967 -0.78355,1.0207351 -1.64118,2.4324365 -1.64499,2.7077155 -0.002,0.152996 -0.24151,0.58978 -0.532,0.97063 -0.29049,0.38085 -0.52816,0.771989 -0.52816,0.869196 0,0.09721 -0.54408,0.88708 -1.20906,1.755273 -1.14154,1.490394 -1.37475,1.850269 -2.10773,3.252694 -0.1658,0.317227 -0.39051,0.631812 -0.49934,0.699076 -0.10884,0.06726 -0.19789,0.308717 -0.19789,0.53656 0,0.558692 -0.78747,1.746957 -2.08904,3.152297 -0.59188,0.639075 -1.12995,1.304557 -1.1957,1.47885 -0.0658,0.174293 -0.51818,0.605842 -1.00539,0.958996 -0.48722,0.353155 -1.00784,0.895581 -1.15696,1.205392 -0.14911,0.309811 -0.55338,0.764283 -0.89837,1.009938 -0.81998,0.583876 -5.77457,2.952337 -6.17601,2.952337 -0.52481,0 -3.30343,0.957378 -4.90783,1.690993 -2.18253,0.997969 -5.03846,1.471651 -5.9952,0.994361 l -0.63784,-0.318195 -0.43122,1.404408 c -1.12748,3.672003 -5.71607,22.325548 -5.71682,23.240047 -3e-4,0.367346 0.0872,0.464314 0.33377,0.369712 0.18379,-0.07053 0.41243,-0.128235 0.50808,-0.128235 0.0957,0 0.43506,-0.451578 0.75424,-1.003506 0.88143,-1.524186 2.0724,-3.318844 2.25486,-3.397833 0.0895,-0.03874 0.16267,-0.183916 0.16267,-0.32263 0,-0.138715 0.30193,-0.58237 0.67097,-0.985899 0.36904,-0.403531 1.14526,-1.336768 1.72493,-2.073861 1.30747,-1.662518 2.61415,-2.954521 4.25892,-4.211037 0.69717,-0.532606 1.64285,-1.331545 2.10151,-1.775421 0.45866,-0.443876 0.9863,-0.807047 1.17252,-0.807047 0.18622,0 0.43588,-0.0973 0.55479,-0.21621 0.11892,-0.118916 0.4327,-0.257902 0.6973,-0.308858 0.26459,-0.05096 0.89156,-0.429007 1.39326,-0.840112 0.5017,-0.411105 1.01715,-0.747463 1.14543,-0.747463 0.12828,0 0.63516,-0.364842 1.1264,-0.810761 0.49123,-0.445919 1.32096,-1.037084 1.84384,-1.313702 0.52287,-0.276618 1.10722,-0.630622 1.29853,-0.786676 0.42483,-0.346525 2.96036,-0.731255 3.20526,-0.486352 0.20548,0.205479 1.62878,-0.07985 2.43731,-0.488599 0.30732,-0.155373 1.04544,-0.396816 1.64023,-0.536542 1.34644,-0.316289 4.72832,-0.4628 4.72832,-0.204841 0,0.105008 0.28992,0.190923 0.64428,0.190923 0.35436,0 0.91424,0.139602 1.2442,0.310227 0.32995,0.170624 0.87188,0.308926 1.20427,0.307335 0.93682,-0.0045 2.23034,0.17811 2.92827,0.413351 3.69501,1.245403 4.29878,1.355993 6.61634,1.211886 7.29255,-0.453453 7.81312,-0.426865 5.95389,0.304094 -0.61043,0.239992 -2.17701,1.064 -4.38638,2.307193 -0.20189,0.113599 -0.79399,0.313625 -1.3158,0.444503 -0.80095,0.200891 -1.28637,0.587241 -3.11614,2.480167 -1.19209,1.233215 -2.16742,2.294783 -2.16742,2.359041 0,0.06426 -0.42681,0.685376 -0.94846,1.380262 -0.52167,0.694886 -0.94948,1.365694 -0.9507,1.490683 -0.002,0.12499 -0.23989,0.450536 -0.53038,0.723435 -0.29049,0.2729 -0.52816,0.577583 -0.52816,0.677074 0,0.238049 -1.38266,1.446378 -2.05302,1.794163 -0.28986,0.150381 -0.98273,0.654961 -1.53971,1.121288 -0.55697,0.466327 -1.33877,0.984114 -1.73731,1.150637 -0.39855,0.166523 -0.8474,0.450695 -0.99745,0.631492 -0.15004,0.180798 -0.83512,0.581072 -1.52238,0.889499 -0.68727,0.308426 -1.31749,0.677184 -1.40048,0.819462 -0.49495,0.848442 -5.40158,2.634542 -7.23741,2.634542 -0.44038,0 -0.83522,0.103565 -0.87741,0.230144 -0.0933,0.279731 -2.11414,0.826177 -3.0554,0.826177 -0.37451,0 -0.73205,0.08273 -0.79455,0.183852 -0.0625,0.101119 -1.28023,0.253313 -2.70609,0.338209 -1.42585,0.0849 -2.74355,0.235001 -2.9282,0.333566 -0.74653,0.398463 -4.7429,0.2883 -6.31908,-0.17419 -0.63908,-0.187522 -1.28321,-0.317766 -1.43141,-0.289433 -0.1482,0.02834 -0.62355,-0.13084 -1.05632,-0.35372 -0.43278,-0.22288 -1.02454,-0.519193 -1.31502,-0.658474 -0.29049,-0.13928 -0.78297,-0.586383 -1.09438,-0.993565 l -0.56623,-0.740328 -0.31472,0.490433 c -0.47663,0.742729 -1.34179,3.384949 -3.72313,11.370542 -1.39943,4.69286 -2.87191,9.123747 -4.10713,12.358962 -0.53237,1.394344 -0.96816,2.701542 -0.96843,2.904883 -5.9e-4,0.467853 1.01418,0.512871 1.19073,0.05286 0.0669,-0.174292 0.2642,-0.3169 0.4385,-0.3169 0.20645,0 0.27072,-0.120323 0.1844,-0.345254 -0.31381,-0.817763 5.83859,-7.674212 7.45235,-8.305167 0.48168,-0.18833 1.18441,-0.62445 1.56162,-0.969156 0.37721,-0.344706 1.06611,-0.803572 1.53089,-1.019704 0.46479,-0.216132 0.98767,-0.474943 1.16196,-0.575136 0.94366,-0.542467 2.84074,-1.250173 3.35122,-1.250173 0.14184,0 0.86658,-0.28458 1.61051,-0.632402 0.74394,-0.34782 1.57184,-0.62198 1.83976,-0.609243 0.93318,0.04436 2.39437,-0.200218 3.2551,-0.54486 0.47663,-0.190843 0.95198,-0.326017 1.05632,-0.300385 0.40195,0.09873 2.32411,-0.296457 2.75414,-0.566236 0.24847,-0.15588 1.00902,-0.332651 1.69012,-0.392824 0.68108,-0.06017 1.57108,-0.160002 1.97776,-0.221843 0.89153,-0.135567 2.40595,-0.293565 4.11965,-0.429801 0.69718,-0.05542 1.39978,-0.151432 1.56133,-0.213352 0.16157,-0.06192 1.18201,0.03873 2.26766,0.223664 1.08564,0.184934 2.06395,0.280591 2.17401,0.212571 0.11006,-0.06802 0.25982,-0.02705 0.33281,0.09104 0.073,0.11809 0.29345,0.217683 0.48994,0.221317 0.19649,0.0037 0.83259,0.240437 1.41356,0.526229 0.58098,0.285792 1.27023,0.520492 1.53167,0.521554 0.28083,0.0011 0.47535,0.13161 0.47535,0.318828 0,0.174293 0.1485,0.316897 0.33001,0.316897 0.53682,0 2.49461,0.673426 2.85558,0.982241 0.18345,0.156939 0.44151,0.285344 0.57349,0.285344 0.13196,0 0.66566,0.237672 1.18597,0.528161 0.52031,0.290488 1.12999,0.528161 1.35484,0.528161 0.22485,0 0.52412,0.138921 0.66503,0.308714 0.14092,0.169793 0.46153,0.370026 0.71249,0.444961 0.25094,0.07494 1.02667,0.400413 1.72384,0.723283 2.12187,0.982667 3.51245,1.480741 4.13408,1.480741 0.32552,0 0.85949,0.103496 1.18659,0.229992 0.56662,0.219119 2.1375,0.459747 5.12033,0.784335 0.74615,0.08119 1.39328,0.258955 1.43808,0.395024 0.0756,0.229657 -0.66831,0.496776 -4.90736,1.762093 -0.69717,0.208099 -1.87714,0.446397 -2.62217,0.529549 -1.08616,0.121226 -1.8816,0.425049 -4.01402,1.53318 -1.46269,0.760093 -2.94464,1.527072 -3.29322,1.704391 -0.69944,0.355794 -2.68537,1.704593 -2.85208,1.937078 -0.0581,0.08101 -0.34397,0.279955 -0.63526,0.442094 -1.04181,0.579855 -2.30654,1.566648 -2.31441,1.805784 -0.005,0.133881 -0.26947,0.342939 -0.589,0.464587 -0.31954,0.121641 -0.91372,0.408191 -1.3204,0.636779 -0.40669,0.228581 -1.83272,0.93763 -3.16896,1.575663 -2.36672,1.130056 -3.42865,1.46168 -5.59851,1.748326 -0.58098,0.07673 -1.30922,0.267826 -1.61831,0.424615 -0.69733,0.353718 -3.93435,0.934221 -5.35341,0.960028 -3.25348,0.05917 -5.13142,0.03138 -7.49988,-0.111157 -1.45244,-0.08738 -3.7341,-0.157524 -5.07034,-0.155847 -2.3763,0.0032 -5.83062,-0.437127 -6.58036,-0.838371 -0.20716,-0.110869 -0.97415,-0.235847 -1.70441,-0.277719 -0.73027,-0.04192 -1.61296,-0.229858 -1.96155,-0.417732 -0.34859,-0.187874 -0.82908,-0.342181 -1.06778,-0.342891 -0.52395,-0.0016 -2.07293,-0.974272 -2.95034,-1.852711 -0.35084,-0.351259 -0.8543,-1.071958 -1.1188,-1.601558 -0.50751,-1.016192 -0.79927,-1.082202 -1.29455,-0.292898 -0.32038,0.510588 -1.61906,3.117622 -2.81312,5.647244 -0.41137,0.87146 -1.66066,3.513124 -2.77621,5.870346 -1.11556,2.357234 -2.02827,4.326684 -2.02827,4.376584 0,0.0857 -2.061229,4.23475 -3.830555,7.71052 -0.929797,1.82655 -0.991352,2.22911 -0.365871,2.39268 0.364705,0.0954 0.879461,-0.32592 2.680318,-2.19364 1.225908,-1.27142 2.320998,-2.31168 2.433538,-2.31168 0.11255,0 0.51624,-0.23767 0.89709,-0.52816 0.38085,-0.29049 0.75204,-0.52816 0.82486,-0.52816 0.0728,0 0.56817,-0.33274 1.10079,-0.73943 0.53262,-0.40668 1.1073,-0.73942 1.27709,-0.73942 0.16978,0 0.73129,-0.28521 1.24779,-0.63379 0.51652,-0.34859 1.02397,-0.6338 1.1277,-0.6338 0.10374,0 0.52758,-0.2 0.94188,-0.44445 0.41431,-0.24444 0.9006,-0.38791 1.08063,-0.31883 0.18003,0.0691 0.69034,-0.0596 1.13401,-0.28593 0.44367,-0.22634 0.85715,-0.36106 0.91884,-0.29938 0.0616,0.0617 0.40932,-0.0415 0.77252,-0.22932 0.57116,-0.29536 1.31769,-0.44842 4.02671,-0.8256 0.29049,-0.0405 0.95597,-0.13607 1.47886,-0.21251 0.52287,-0.0764 1.37849,-0.18072 1.90138,-0.23174 0.52287,-0.051 1.47356,-0.16628 2.11264,-0.25617 1.46388,-0.20591 5.27697,-0.11905 5.58113,0.12712 0.22311,0.18057 1.48938,0.3904 3.18249,0.52736 0.63989,0.0517 0.86742,0.17178 0.95069,0.50148 0.10284,0.40715 0.15902,0.41628 0.92682,0.15064 0.78606,-0.27196 0.99929,-0.26122 1.92909,0.0971 1.12736,0.43446 2.06169,0.66466 3.0941,0.76232 0.6354,0.0601 1.23399,0.2428 1.36574,0.41683 0.129,0.1704 0.48367,0.30982 0.78814,0.30982 0.30447,0 1.07374,0.33274 1.70949,0.73943 0.63575,0.40668 1.25554,0.73942 1.37732,0.73942 0.12178,0 0.22141,0.0877 0.22141,0.19488 0,0.10718 0.3266,0.30267 0.72579,0.43441 0.39917,0.13174 0.75568,0.30548 0.79223,0.3861 0.0366,0.0806 0.41667,0.3367 0.8447,0.5691 2.13378,1.15849 5.83184,3.39317 6.29912,3.80644 0.61252,0.54173 2.82073,2.00624 3.71637,2.46475 0.338,0.17303 0.98683,0.52751 1.44184,0.78773 0.45502,0.26021 1.35818,0.66438 2.00702,0.89814 1.22997,0.44314 1.68111,0.63043 3.60924,1.49839 0.63908,0.28768 2.13209,0.82306 3.3178,1.18973 1.18571,0.36666 2.21034,0.75486 2.27696,0.86265 0.18932,0.30632 -1.78178,0.57501 -6.12292,0.83464 -1.77437,0.10612 -3.68031,0.34327 -4.33092,0.53887 -0.63907,0.19213 -1.4717,0.44484 -1.8503,0.56157 -0.3786,0.11674 -0.94902,0.25919 -1.26759,0.31659 -0.31858,0.0574 -1.14158,0.28863 -1.82889,0.51385 -0.68732,0.22523 -1.44111,0.40951 -1.67512,0.40951 -0.69362,0 -2.5297,0.65376 -4.21189,1.4997 -0.43931,0.22093 -1.02186,0.40168 -1.29454,0.40168 -0.27268,0 -0.60614,0.13296 -0.74101,0.29548 -0.13487,0.16251 -0.59809,0.34293 -1.02937,0.40092 -0.43129,0.058 -1.11689,0.20677 -1.52357,0.33062 -1.02493,0.31211 -2.84342,0.77757 -4.22529,1.08152 -0.88212,0.19403 -1.44178,0.19812 -2.3239,0.017 -1.71765,-0.35272 -4.62606,-0.59555 -9.08437,-0.75848 -1.22005,-0.0446 -2.78869,-0.18657 -3.48586,-0.31553 -0.69717,-0.12895 -1.66565,-0.26957 -2.15218,-0.31249 -0.48653,-0.0429 -1.19954,-0.16072 -1.58448,-0.26179 -0.38494,-0.10108 -1.22277,-0.14049 -1.86184,-0.0876 -1.61037,0.13332 -2.28485,0.11398 -5.07034,-0.1454 -3.26711,-0.30425 -3.81376,-0.38188 -4.4667,-0.63441 -0.30707,-0.11876 -0.74735,-0.16649 -0.97839,-0.10607 -0.43973,0.11499 -2.53828,-0.77246 -3.4037,-1.43939 -0.2771,-0.21356 -0.63769,-0.38828 -0.80131,-0.38828 -0.40602,0 -4.00102,-2.28878 -4.572946,-2.91139 -0.136715,-0.14883 -0.655559,-0.69092 -1.152987,-1.20464 -1.000527,-1.03331 -1.525119,-2.0859 -1.525119,-3.06017 0,-0.42227 -0.105663,-0.64058 -0.31005,-0.64058 -0.286726,0 -1.776887,1.80942 -2.087863,2.53518 -0.07466,0.17429 -0.987423,1.69539 -2.02832,3.38022 -1.040898,1.68483 -2.338386,3.82389 -2.883308,4.75345 -0.544922,0.92956 -1.203332,2.02285 -1.463149,2.42953 -0.259806,0.40669 -1.0236,1.69012 -1.697308,2.85207 -1.021503,1.76179 -1.92994,3.2993 -3.579071,6.05748 -2.246968,3.75806 -2.78484,4.80535 -2.575486,5.01471 0.396365,0.39636 0.705711,0.25925 1.505764,-0.66742 1.614716,-1.87025 3.426816,-3.53868 3.843423,-3.53868 0.181534,0 0.58241,-0.13395 0.890831,-0.29766 1.069587,-0.56776 2.83439,-1.21554 3.807736,-1.39765 0.538063,-0.10066 1.548714,-0.36957 2.245882,-0.59756 2.383827,-0.77957 3.555579,-0.89841 11.605841,-1.17704 1.503,-0.0521 2.89179,-0.009 3.08621,0.0946 0.4128,0.22092 4.67807,0.44902 7.66611,0.40997 1.55808,-0.0204 2.16489,0.0505 2.42954,0.28383 0.19401,0.17102 1.04119,0.42498 1.88261,0.56433 0.8976,0.14866 1.82683,0.45489 2.24839,0.74097 0.3952,0.26819 1.03772,0.55709 1.42784,0.64201 0.39013,0.0849 0.89684,0.28485 1.12604,0.4443 0.22919,0.15945 0.60947,0.29053 0.84505,0.29129 0.23558,7.7e-4 0.71354,0.19028 1.06213,0.42115 0.34858,0.23085 0.85068,0.42036 1.11577,0.42113 0.26509,7.7e-4 0.53377,0.13639 0.59709,0.30138 0.0633,0.165 0.62954,0.55167 1.25829,0.85929 0.62874,0.30761 1.69102,1.10481 2.3606,1.77153 0.66959,0.66673 1.74032,1.64674 2.37939,2.17781 2.03054,1.68735 4.06706,3.71901 3.93771,3.92831 -0.0688,0.11123 0.0629,0.37227 0.29256,0.5801 0.22965,0.20783 0.41755,0.48917 0.41755,0.6252 0,0.13603 0.23767,0.47061 0.52816,0.74352 0.29049,0.27289 0.52816,0.60291 0.52816,0.73337 0,0.13045 0.38027,0.60852 0.84506,1.06237 0.46478,0.45384 0.84548,0.92471 0.846,1.04638 5.2e-4,0.12166 0.83237,1.08048 1.84856,2.13071 1.01619,1.05023 2.1907,2.28612 2.61003,2.74644 0.41933,0.46031 1.3062,1.3508 1.97082,1.97887 1.30505,1.23327 1.94284,2.06918 1.73634,2.27568 -0.14545,0.14545 -2.96883,-0.66291 -3.62452,-1.03773 -3.19109,-1.82417 -5.56745,-2.32556 -7.17507,-1.51389 -0.76711,0.38731 -6.15077,1.14383 -8.11915,1.14092 -0.76761,-8e-4 -1.84898,0.0103 -2.40303,0.0254 -0.55407,0.0151 -1.4304,-0.091 -1.94741,-0.23574 -1.02357,-0.28658 -4.44764,-0.11815 -4.6624,0.22935 -0.0654,0.1058 -0.59488,0.19237 -1.17663,0.19237 -0.58176,0 -1.23026,0.0923 -1.44112,0.20517 -0.25836,0.13827 -0.99441,0.10181 -2.2572,-0.11181 -2.02232,-0.34212 -3.08504,-0.48929 -4.409,-0.6106 -0.46478,-0.0426 -1.35376,-0.18066 -1.97551,-0.30683 -0.66103,-0.13415 -1.2668,-0.15309 -1.4588,-0.0457 -0.18699,0.10464 -0.62168,0.10277 -1.00963,-0.004 -0.3747,-0.10346 -1.23934,-0.23473 -1.92142,-0.2917 -1.83061,-0.15291 -2.68082,-0.33161 -3.03591,-0.63809 -0.17429,-0.15044 -0.55457,-0.26345 -0.84505,-0.25115 -0.75171,0.0319 -4.921348,-0.70482 -5.184614,-0.91599 -0.120954,-0.097 -0.687028,-0.28107 -1.257956,-0.40902 -0.570929,-0.12795 -1.501772,-0.46555 -2.068548,-0.75022 -0.566769,-0.28467 -1.118733,-0.51759 -1.226592,-0.51759 -0.10785,0 -0.97943,-0.38935 -1.936831,-0.86522 -0.957408,-0.47587 -1.987574,-0.88434 -2.289252,-0.90773 -0.629233,-0.0488 -1.683537,-0.83408 -2.157834,-1.60728 -0.178188,-0.29048 -0.664773,-0.90843 -1.0813,-1.37321 -0.416519,-0.46479 -0.81056,-1.01121 -0.875636,-1.21428 -0.122495,-0.38224 -0.809714,-0.64654 -1.493308,-0.5743 -0.753301,0.0796 -0.858045,-0.0164 -1.536202,-1.40721 -0.622901,-1.27752 -0.676679,-1.54564 -0.614573,-3.06383 0.03745,-0.91508 0.04879,-1.66356 0.02515,-1.66329 -0.02356,2.7e-4 -0.283332,0.11005 -0.577229,0.24397 -0.818944,0.37313 -5.498438,7.71911 -9.130824,14.33376 -0.542366,0.98766 -1.778859,3.09497 -2.747766,4.68293 -0.968906,1.58795 -1.761644,2.93901 -1.761644,3.00235 0,0.0633 -0.57041,1.04126 -1.267586,2.17315 -0.697168,1.13189 -1.267585,2.20599 -1.267585,2.38688 0,0.1809 0.209577,0.45979 0.465729,0.61976 0.434787,0.27153 0.52575,0.22226 1.368872,-0.74142 0.496734,-0.56775 0.9051,-1.0951 0.907488,-1.17188 0.0024,-0.0768 0.432161,-0.3467 0.955037,-0.59982 0.522876,-0.25312 0.950685,-0.53722 0.950685,-0.63131 0,-0.27606 1.654983,-1.05881 2.238672,-1.05881 0.294551,0 0.734776,-0.10662 0.97828,-0.23694 0.798679,-0.42744 3.193789,-0.85117 4.963426,-0.8781 1.476156,-0.0224 1.809066,0.0386 2.218271,0.40657 0.264807,0.23815 1.051876,0.75446 1.749052,1.14734 1.242945,0.70047 1.311183,0.71337 3.511001,0.66373 1.788098,-0.0403 2.29716,0.0141 2.508222,0.26844 0.145643,0.1755 0.59216,0.31908 0.992254,0.31908 0.400094,0 0.918411,0.1022 1.151803,0.22711 0.233403,0.12492 0.809019,0.26538 1.279148,0.31215 0.470128,0.0468 0.990681,0.19783 1.15678,0.33567 0.187244,0.1554 1.146528,0.25755 2.524599,0.26883 1.837117,0.015 2.25659,0.0789 2.418498,0.36826 0.12473,0.22291 0.355012,0.30844 0.633984,0.23549 0.25949,-0.0679 0.670483,0.0572 1.008088,0.30684 0.313491,0.23178 0.805825,0.49324 1.09406,0.58103 0.288243,0.0878 0.714216,0.32344 0.946605,0.52368 0.232389,0.20022 0.724628,0.48319 1.093856,0.62881 0.36924,0.14562 0.83556,0.44621 1.03625,0.66798 0.20071,0.22178 0.6286,0.40322 0.95088,0.40322 0.77954,0 1.28539,0.52458 1.1244,1.16602 -0.10637,0.42382 -0.0104,0.54993 0.61896,0.81287 0.60693,0.25359 0.75736,0.43886 0.81233,1.00048 0.0656,0.66966 0.11252,0.7005 1.65194,1.08475 0.95614,0.23865 1.90593,0.34687 2.39508,0.2729 0.67297,-0.10178 0.82807,-0.0558 0.91349,0.27086 0.0566,0.21639 0.49991,0.60024 0.98515,0.85299 1.15505,0.60164 2.50585,1.657 3.96064,3.09437 0.64735,0.63961 1.24972,1.16293 1.3386,1.16293 0.15841,0 1.30251,0.99132 2.03591,1.76405 1.06765,1.1249 1.57877,1.55256 2.30334,1.92726 0.35477,0.18346 0.64503,0.41951 0.64503,0.52458 0,0.10505 0.43476,0.40814 0.96613,0.67352 0.53137,0.26538 1.01528,0.56203 1.07535,0.65923 0.16127,0.26093 -0.46208,1.46788 -1.02432,1.98338 -0.26895,0.24658 -0.89304,0.65113 -1.38687,0.899 -0.53554,0.26879 -0.89819,0.59813 -0.89867,0.81608 -0.002,0.5866 -2.39408,1.32165 -4.60305,1.41402 -0.15011,0.006 -0.34025,0.11525 -0.42253,0.24216 -0.16325,0.2518 -0.79754,0.42837 -2.57331,0.71633 -0.63587,0.10312 -1.25381,0.31898 -1.37322,0.47969 -0.12701,0.17096 -1.0499,0.40772 -2.22411,0.57059 -1.10385,0.15311 -2.10208,0.3499 -2.21827,0.43729 -0.2648,0.19918 -4.10051,0.12032 -4.57849,-0.0941 -0.19426,-0.0872 -0.56395,-0.0457 -0.82153,0.0922 -0.28138,0.15059 -1.447573,0.25363 -2.921398,0.25814 -2.039427,0.006 -2.613366,-0.0659 -3.403748,-0.42788 -0.522884,-0.23945 -1.330969,-0.54861 -1.795748,-0.68703 -0.464778,-0.13842 -1.546582,-0.57951 -2.403997,-0.98022 -1.800602,-0.8415 -2.971177,-1.24382 -4.098885,-1.40878 -0.439315,-0.0643 -1.095633,-0.26495 -1.458494,-0.44597 -0.362853,-0.18102 -0.93339,-0.32912 -1.267857,-0.32912 -0.334467,0 -0.949424,-0.1426 -1.366565,-0.3169 -0.417142,-0.1743 -0.904222,-0.3169 -1.08241,-0.3169 -0.178181,0 -0.635574,-0.23767 -1.016424,-0.52816 -0.380851,-0.29049 -0.975015,-0.52816 -1.320381,-0.52816 -0.695707,0 -2.353829,-0.80158 -2.512814,-1.21477 -0.05589,-0.14524 -0.309019,-0.26408 -0.562505,-0.26408 -0.419041,0 -0.85652,-0.19145 -2.460497,-1.07679 -0.295381,-0.16303 -0.92701,-0.6054 -1.403622,-0.98304 -0.476613,-0.37763 -0.956986,-0.6866 -1.067503,-0.6866 -0.110518,0 -0.37301,-0.19014 -0.583321,-0.42253 -0.210311,-0.23239 -0.486481,-0.42258 -0.613719,-0.42264 -0.127238,-5e-5 -0.640652,-0.4754 -1.140931,-1.05631 -0.500279,-0.58093 -1.037935,-1.05622 -1.194804,-1.05622 -0.478097,0 -2.097085,-0.9213 -2.505931,-1.42604 -0.211772,-0.26144 -0.522285,-0.47534 -0.690029,-0.47534 -0.268665,0 -0.587968,-0.55455 -1.155639,-2.00701 -0.609136,-1.55857 -0.686892,-5.52339 -0.129266,-6.59152 0.457129,-0.87564 0.446526,-0.95104 -0.122375,-0.87024 -0.332423,0.0472 -0.905419,0.70272 -1.905722,2.18015 -1.271155,1.87747 -6.460063,10.36877 -9.349703,15.30015 -0.584063,0.99674 -1.351633,2.24007 -1.705719,2.76295 -1.016376,1.50087 -3.464657,5.81557 -3.464657,6.10589 0,0.14466 0.163712,0.23149 0.363795,0.19296 0.218488,-0.0421 0.587441,-0.60607 0.923769,-1.41211 0.307981,-0.73812 0.690924,-1.49792 0.850979,-1.68844 0.160047,-0.19052 0.459772,-0.60813 0.666059,-0.92802 0.563982,-0.87459 1.906153,-1.63649 2.882869,-1.63649 0.460235,0 0.895542,-0.0951 0.967357,-0.21126 0.07178,-0.1162 0.354821,-0.21127 0.628907,-0.21127 0.274078,0 0.980476,-0.24217 1.56977,-0.53815 0.766571,-0.38503 1.267441,-0.5046 1.760287,-0.42024 0.37887,0.0648 2.211906,0.14999 4.073425,0.1892 1.887341,0.0398 3.569569,0.17254 3.802756,0.30019 0.768033,0.42043 2.295708,0.72285 5.065999,1.00289 3.595759,0.36349 4.867704,0.61224 6.021027,1.17748 0.522884,0.25626 1.188361,0.57946 1.478847,0.71824 0.290495,0.13877 1.146113,0.41791 1.901379,0.62031 0.755273,0.2024 1.515824,0.53494 1.690116,0.73896 0.174292,0.20402 0.968715,0.64191 1.76539,0.97308 0.796666,0.33117 1.491247,0.71355 1.543508,0.84974 0.05222,0.13619 0.660102,0.65699 1.350763,1.15733 0.690652,0.50035 1.255736,0.97907 1.255736,1.06382 0,0.0848 0.567447,0.75753 1.260995,1.49505 0.693543,0.73752 1.267082,1.53109 1.274532,1.76347 0.0072,0.23239 0.390696,0.80026 0.85165,1.26192 0.460962,0.46166 0.838108,0.95315 0.838108,1.09219 0,0.13905 0.522884,0.75185 1.161954,1.36179 0.639071,0.60993 1.161955,1.28161 1.161955,1.49262 0,0.211 0.292204,0.85854 0.649347,1.43897 0.409221,0.66506 0.60207,1.20431 0.521487,1.4582 -0.09475,0.29854 0.120051,0.62108 0.8295,1.24557 0.526549,0.46348 0.957369,0.94955 0.957369,1.08015 0,0.13059 0.09379,0.23744 0.208427,0.23744 0.114637,0 0.346635,0.33077 0.515546,0.73505 0.168918,0.40427 0.550471,0.99748 0.847896,1.31824 0.297426,0.32076 0.54077,0.76451 0.54077,0.98612 0,0.22161 0.319089,0.793 0.70909,1.26975 0.719014,0.87894 1.61482,2.4667 1.61482,2.86217 0,0.13706 -0.44552,0.17085 -1.214774,0.0922 -0.66812,-0.0683 -1.712906,-0.0325 -2.321746,0.0796 -0.814656,0.15008 -1.24078,0.13452 -1.613678,-0.0589 -0.687427,-0.35664 -1.566249,-0.15349 -1.964339,0.45407 -0.250466,0.38226 -0.519338,0.50107 -1.133984,0.50107 -0.443116,0 -0.948433,0.14277 -1.122933,0.31726 -0.243448,0.24345 -0.446773,0.26802 -0.873895,0.10564 -0.799757,-0.30407 -1.109726,-0.26483 -1.573762,0.19919 -0.422061,0.42207 -1.733783,0.7746 -3.864181,1.03852 -0.666435,0.0826 -1.32716,0.26558 -1.468291,0.4067 -0.312333,0.31233 -0.290527,0.31371 -1.334043,-0.0841 z"
       id="path1"
       clip-path="url(#clipPath1)"
       transform="matrix(1.1735119,0,0,1.1735119,-0.003837,-0.12607154)" /></g></svg>
